 http://www.grinshare.com/img/OUW67R.png
 
http://www.grinshare.com/img/R87F2M.png
 
http://www.grinshare.com/img/332KDV.png
 
http://www.grinshare.com/img/KR76TN.png
 
http://www.grinshare.com/img/8W84PG.png
 
http://www.grinshare.com/img/B32J3G.png

Format;AVI

File Size:890mb

Video
ID : 0
Format : MPEG-4 Visual
Format profile : Advanced Simple@L5
Format settings, BVOP : Yes
Format settings, QPel : No
Format settings, GMC : No warppoints
Format settings, Matrix : Custom
Codec ID : XVID
Codec ID/Hint : XviD
Duration : 1h 37mn
Bit rate : 1 056 Kbps
Width : 680 pixels
Height : 384 pixels
Display aspect ratio : 16:9
Frame rate : 29.970 fps
Color space : YUV
Chroma subsampling : 4:2:0
Bit depth : 8 bits
Scan type : Progressive
Bits/(Pixel*Frame) : 0.135
Stream size : 737 MiB (84%)
Writing library : XviD 1.2.1 (UTC 2008-12-04)

Audio
ID : 1
Format : AC-3
Format/Info : Audio Coding 3
Mode extension : CM (complete main)
Codec ID : 2000
Duration : 1h 37mn
Bit rate mode : Constant
Bit rate : 192 Kbps
Channel(s) : 2 channels
Channel positions : Front: L R
Sampling rate : 48.0 KHz
Bit depth : 16 bits
Stream size : 134 MiB (15%)
Alignment : Aligned on interleaves
Interleave, duration : 33 ms (1.00 video frame)
Interleave, preload duration : 512 ms

Duration:1:37

Release Date:2011

Language:English


A couple who seems to have it all pushes their sex life to the edge. The story gets intertwined when an old flame, betrayal, lust and deceit enter the picture./b]
 
http://www.imdb.com/title/tt1704578/